<svg width="30" height="30" viewBox="0 0 30 30" fill="none" xmlns="http://www.w3.org/2000/svg">
<g clip-path="url(#clip0_31_251)">
<path d="M33 -3H-3V33H33V-3Z" fill="white"/>
<path d="M33 -3H-3V33H33V-3Z" fill="black"/>
<mask id="mask0_31_251" style="mask-type:luminance" maskUnits="userSpaceOnUse" x="0" y="0" width="30" height="30">
<path d="M30 0H0V29.8828H30V0Z" fill="white"/>
</mask>
<g mask="url(#mask0_31_251)">
<mask id="mask1_31_251" style="mask-type:luminance" maskUnits="userSpaceOnUse" x="1" y="1" width="28" height="28">
<path d="M1.17538 1.09418H28.8246V28.7433H1.17538V1.09418Z" fill="white"/>
</mask>
<g mask="url(#mask1_31_251)">
<mask id="mask2_31_251" style="mask-type:luminance" maskUnits="userSpaceOnUse" x="1" y="1" width="28" height="28">
<path d="M15 1.09418C7.36496 1.09418 1.17538 7.2836 1.17538 14.9188C1.17538 22.5538 7.36496 28.7433 15 28.7433C22.635 28.7433 28.8246 22.5538 28.8246 14.9188C28.8246 7.2836 22.635 1.09418 15 1.09418Z" fill="white"/>
</mask>
<g mask="url(#mask2_31_251)">
<mask id="mask3_31_251" style="mask-type:luminance" maskUnits="userSpaceOnUse" x="1" y="1" width="28" height="28">
<path d="M28.8279 1.09357H1.17161V28.7498H28.8279V1.09357Z" fill="white"/>
</mask>
<g mask="url(#mask3_31_251)">
<mask id="mask4_31_251" style="mask-type:luminance" maskUnits="userSpaceOnUse" x="1" y="1" width="28" height="28">
<path d="M1.17538 1.09418H28.8246V28.7433H1.17538V1.09418Z" fill="white"/>
</mask>
<g mask="url(#mask4_31_251)">
<mask id="mask5_31_251" style="mask-type:luminance" maskUnits="userSpaceOnUse" x="1" y="1" width="28" height="28">
<path d="M15 1.09418C7.36496 1.09418 1.17538 7.2836 1.17538 14.9188C1.17538 22.5538 7.36496 28.7433 15 28.7433C22.635 28.7433 28.8246 22.5538 28.8246 14.9188C28.8246 7.2836 22.635 1.09418 15 1.09418Z" fill="white"/>
</mask>
<g mask="url(#mask5_31_251)">
<path d="M1.17538 1.09418H28.8246V28.7433H1.17538V1.09418Z" fill="white"/>
</g>
</g>
</g>
</g>
</g>
<mask id="mask6_31_251" style="mask-type:luminance" maskUnits="userSpaceOnUse" x="4" y="5" width="21" height="20">
<path d="M4.32434 5.04517H24.1016V24.7923H4.32434V5.04517Z" fill="white"/>
</mask>
<g mask="url(#mask6_31_251)">
<path d="M11.1178 19.5116C11.2348 19.4673 11.3477 19.4188 11.4567 19.3665C11.8641 19.1728 12.2271 18.9307 12.5378 18.6484C12.9331 18.2893 13.2478 17.8616 13.4657 17.3816C13.5342 17.2363 13.5906 17.0871 13.635 16.9379C13.744 16.5909 13.7965 16.2279 13.7965 15.8527C13.7965 15.4291 13.744 15.0418 13.635 14.6989C13.5867 14.5375 13.5221 14.3842 13.4455 14.239C13.2156 13.7952 12.9009 13.3919 12.5135 13.0489C12.1908 12.7625 11.8238 12.4922 11.4163 12.2461C11.3357 12.1977 11.255 12.1494 11.1743 12.1049C10.6741 11.8266 10.1415 11.5321 9.58887 11.2416C9.58475 11.2376 9.57666 11.2376 9.57269 11.2335C9.53241 11.2134 9.49609 11.1932 9.45978 11.1731C9.29437 11.0883 9.13294 10.9996 8.97974 10.9189C8.71744 10.7777 8.46323 10.6445 8.22122 10.5115C7.80573 10.2896 7.44272 10.0555 7.13602 9.82162C6.83344 9.59167 6.59555 9.3335 6.42603 9.06311C6.25253 8.79288 6.16785 8.47412 6.16785 8.11111C6.16785 7.85294 6.2243 7.60284 6.34134 7.36069C6.45837 7.11868 6.62378 6.89682 6.83756 6.71127C7.05133 6.52161 7.30554 6.36841 7.59195 6.25137C7.87836 6.13846 8.19711 6.07788 8.53189 6.07788C8.83447 6.07788 9.14102 6.12228 9.4436 6.203C9.74619 6.28769 10.0366 6.40472 10.3069 6.55396C10.5772 6.70319 10.8273 6.88873 11.0572 7.09854C11.2832 7.30835 11.4768 7.55035 11.6302 7.81662C11.9448 8.34915 12.1626 9.0834 12.2836 9.991L12.2958 10.0798H12.8686V5.04517H12.2997L12.2836 5.12589C12.203 5.50095 12.1102 5.65033 12.0416 5.71487C11.9488 5.80353 11.8278 5.84793 11.6744 5.84793C11.5171 5.84793 11.2589 5.76324 10.904 5.59784C10.0569 5.23071 9.24997 5.04517 8.51175 5.04517C7.91467 5.04517 7.35391 5.14603 6.84564 5.34363C6.33737 5.54138 5.89349 5.8197 5.5224 6.16257C5.15131 6.50558 4.85681 6.91299 4.647 7.36877C4.43323 7.82471 4.32825 8.31284 4.32825 8.81714C4.32825 9.42215 4.44528 9.95071 4.67523 10.3864C4.90121 10.822 5.20776 11.2134 5.58694 11.5523C5.96216 11.8871 6.3978 12.2017 6.88593 12.4802C7.36597 12.7544 7.87027 13.0489 8.39075 13.3595C8.85065 13.6339 9.29025 13.884 9.70575 14.1019C10.1133 14.3156 10.4763 14.5456 10.7829 14.7795C10.8515 14.832 10.9161 14.8845 10.9767 14.9409C11.1662 15.1103 11.3276 15.3 11.4567 15.4976V17.7003C11.3517 17.8697 11.2187 18.027 11.0572 18.1642C11.029 18.1885 11.0008 18.2126 10.9725 18.2329C10.7588 18.4023 10.5045 18.5394 10.2142 18.6443C9.88336 18.7653 9.50418 18.8219 9.08853 18.8219C8.73361 18.8219 8.38266 18.7814 8.04773 18.6967C7.71295 18.6121 7.3942 18.495 7.10382 18.3458C6.81329 18.1966 6.55115 18.015 6.31708 17.8093C6.08713 17.6035 5.89349 17.3816 5.75235 17.1436C5.60709 16.8974 5.47403 16.5869 5.35699 16.2238C5.23996 15.8566 5.13513 15.421 5.04633 14.9248L5.0303 14.8401H4.46146V19.8264H5.03427L5.04633 19.7375C5.10278 19.3665 5.1835 19.2171 5.23996 19.1566C5.32068 19.0759 5.42963 19.0356 5.57077 19.0356C5.57489 19.0356 5.60709 19.0356 5.7403 19.0639C5.83704 19.084 5.95804 19.1122 6.1033 19.1446C6.24857 19.1809 6.40588 19.2212 6.57129 19.2737C6.74066 19.3221 6.90607 19.3785 7.06751 19.4391C7.30554 19.5319 7.50726 19.6004 7.67664 19.6529C7.84601 19.7052 8.01553 19.7456 8.18094 19.7697C8.34222 19.794 8.51175 19.8102 8.68524 19.8183C8.85858 19.8264 9.06839 19.8303 9.30643 19.8303C9.9035 19.8303 10.4643 19.7415 10.9725 19.5641C11.0209 19.5479 11.0694 19.5319 11.1178 19.5116ZM12.8605 19.0033C12.4612 19.3665 11.9892 19.6649 11.4526 19.8909V22.2185C11.4526 23.2352 11.3316 23.6063 11.2267 23.7395C10.9968 24.046 10.6014 24.2033 10.0527 24.2033H9.45566V24.7923H15.6361V24.2033H15.0309C14.7202 24.2033 14.4218 24.1267 14.1435 23.9694C14.0304 23.9049 13.9376 23.8403 13.8691 23.7677C13.8046 23.7032 13.756 23.6104 13.7238 23.4973C13.6875 23.3763 13.6633 23.2109 13.6512 23.0133C13.6392 22.8116 13.6311 22.5453 13.6311 22.2185V18.0795C13.4213 18.4184 13.1631 18.7289 12.8605 19.0033ZM22.5909 23.9694C22.478 23.9049 22.3892 23.8403 22.3206 23.7717C22.2601 23.7071 22.2157 23.6185 22.1794 23.5014C22.1432 23.3763 22.1189 23.2109 22.1069 23.0133C22.0947 22.8116 22.0866 22.5453 22.0866 22.2185V13.2224C22.0866 12.5568 22.1229 12.113 22.1916 11.8991C22.2318 11.7862 22.3005 11.6853 22.3852 11.6048C22.478 11.5199 22.5828 11.4473 22.7038 11.3908C22.825 11.3344 22.954 11.29 23.0912 11.2659C23.2282 11.2416 23.3615 11.2254 23.4825 11.2254H24.0754L24.0916 10.6364H17.9113V11.2254H18.5084C18.811 11.2254 19.1094 11.3022 19.3958 11.4595C19.5088 11.524 19.6015 11.5886 19.6702 11.6612C19.7347 11.7297 19.7831 11.8185 19.8155 11.9354C19.8518 12.0605 19.8759 12.226 19.8881 12.4236C19.9001 12.6253 19.9082 12.8957 19.9082 13.2184V17.1072H14.0869C14.0345 17.2687 13.9739 17.426 13.9013 17.5833C13.8247 17.7527 13.7359 17.9181 13.635 18.0754H19.9041V22.2185C19.9041 23.2352 19.775 23.6063 19.6702 23.7395C19.4241 24.046 19.0328 24.2033 18.5084 24.2033H17.9113V24.7923H24.0835V24.2033H23.4864C23.1678 24.2033 22.8692 24.1267 22.5909 23.9694Z" fill="#1800AD"/>
</g>
<mask id="mask7_31_251" style="mask-type:luminance" maskUnits="userSpaceOnUse" x="0" y="0" width="30" height="30">
<path d="M0 0H30V29.85H0V0Z" fill="white"/>
</mask>
<g mask="url(#mask7_31_251)">
<mask id="mask8_31_251" style="mask-type:luminance" maskUnits="userSpaceOnUse" x="-7" y="-7" width="44" height="44">
<path d="M36.6 -6.59998H-6.6V36.6H36.6V-6.59998Z" fill="black" fill-opacity="0.11"/>
</mask>
<g mask="url(#mask8_31_251)">
<mask id="mask9_31_251" style="mask-type:luminance" maskUnits="userSpaceOnUse" x="0" y="0" width="30" height="30">
<path d="M30 0H0V29.8828H30V0Z" fill="white"/>
</mask>
<g mask="url(#mask9_31_251)">
<path d="M28.9355 16.8204C27.8886 24.4846 20.8321 29.8484 13.1743 28.8005C5.51635 27.7529 0.157162 20.6903 1.20391 13.0262C2.25082 5.36181 9.3074 -0.00195388 16.9653 1.04587C24.6231 2.09354 29.9825 9.15606 28.9355 16.8204ZM28.4358 16.7519C29.4449 9.36389 24.2789 2.55603 16.897 1.54605C9.51523 0.536071 2.71286 5.70651 1.70379 13.0945C0.694576 20.4825 5.86074 27.2904 13.2425 28.3004C20.6244 29.3103 27.4266 24.14 28.4358 16.7519Z" fill="black"/>
<path d="M1.05301 16.8204C2.09991 24.4846 9.15649 29.8484 16.8143 28.8005C24.4722 27.7529 29.8314 20.6903 28.7845 13.0262C27.7377 5.36181 20.6812 -0.00195388 13.0232 1.04587C5.36529 2.09354 0.00610043 9.15606 1.05301 16.8204ZM1.55273 16.7519C0.543668 9.36389 5.70968 2.55603 13.0916 1.54605C20.4733 0.536071 27.2755 5.70651 28.2848 13.0945C29.294 20.4825 24.1278 27.2904 16.7459 28.3004C9.36416 29.3103 2.56195 24.14 1.55273 16.7519Z" fill="black"/>
<path d="M11.4014 2.01435L11.2328 2.63538L11.236 2.62226L11.1008 3.25153L11.1034 3.23826L11.0019 3.87379L11.0036 3.86036L10.9363 4.50046L10.9373 4.48704L10.9041 5.12974L10.9044 5.11631L10.9056 5.75977L10.9052 5.74634L10.9406 6.38889L10.9395 6.37546L11.0092 7.01527L11.0074 7.00199L11.111 7.63706L11.1086 7.62394L11.2459 8.2526L11.2425 8.23902L11.4262 8.90171L11.422 8.88798L11.6431 9.53892L11.638 9.52549L11.8958 10.1628L11.89 10.1497L12.1837 10.7714L12.1773 10.7586L12.5058 11.3623L12.4986 11.3498L12.861 11.9341L12.8531 11.922L13.2483 12.4845L13.2397 12.473L13.6662 13.012L13.6571 13.001L14.1136 13.5147C14.2062 13.619 14.1969 13.7786 14.0929 13.8712C13.9886 13.9638 13.8293 13.9545 13.7367 13.8503L13.2802 13.3365C13.277 13.3329 13.2739 13.3292 13.2709 13.3254L12.8442 12.7864C12.8413 12.7826 12.8384 12.7788 12.8357 12.7748L12.4405 12.2124C12.4377 12.2084 12.4352 12.2045 12.4326 12.2004L12.07 11.6162C12.0676 11.6121 12.0651 11.608 12.0628 11.6039L11.7342 10.9999C11.7319 10.9957 11.7297 10.9914 11.7278 10.9871L11.434 10.3655C11.4319 10.3612 11.4301 10.3568 11.4282 10.3524L11.1703 9.715C11.1687 9.71043 11.167 9.706 11.1655 9.70142L10.9444 9.05033C10.9428 9.0459 10.9413 9.04117 10.9401 9.0366L10.7565 8.37406C10.7553 8.36948 10.7541 8.36506 10.7532 8.36048L10.6157 7.73182C10.6148 7.72739 10.6139 7.72297 10.6133 7.71854L10.5095 7.08332C10.5087 7.07889 10.5081 7.07447 10.5077 7.07004L10.4381 6.43024C10.4376 6.42582 10.4372 6.42124 10.437 6.41682L10.4015 5.77427C10.4013 5.76969 10.4012 5.76527 10.4012 5.76069L10.3999 5.11707C10.3999 5.11265 10.4001 5.10822 10.4004 5.10364L10.4335 4.46094C10.4338 4.45652 10.4341 4.45194 10.4346 4.44752L10.502 3.80756C10.5025 3.80299 10.5031 3.79856 10.5037 3.79413L10.6052 3.15861C10.6059 3.15418 10.6067 3.14976 10.6076 3.14533L10.7428 2.51621C10.7437 2.51179 10.7448 2.50736 10.746 2.50309L10.9146 1.88206C10.9511 1.74747 11.0896 1.66798 11.2241 1.7046C11.3585 1.74106 11.4378 1.87977 11.4014 2.01435Z" fill="black"/>
<path d="M14.3368 13.7491L14.3465 14.3515C14.3465 14.357 14.3465 14.3624 14.3462 14.3679L14.3169 14.9697C14.3166 14.9752 14.3161 14.9805 14.3155 14.986L14.2474 15.5846C14.2468 15.5901 14.2459 15.5954 14.245 15.6008L14.1385 16.1939C14.1374 16.1992 14.1363 16.2046 14.135 16.2098L13.9905 16.7948C13.9891 16.8 13.9876 16.8051 13.986 16.8103L13.804 17.3847C13.8023 17.3899 13.8005 17.3951 13.7985 17.4001L13.5799 17.9615C13.5779 17.9666 13.5757 17.9715 13.5735 17.9766L13.3189 18.5227C13.3166 18.5276 13.3142 18.5324 13.3116 18.5372L13.0225 19.0657C13.0199 19.0705 13.0171 19.0752 13.0142 19.0798L12.6915 19.5885C12.6886 19.5931 12.6855 19.5975 12.6823 19.6019L12.3276 20.0888C12.3244 20.0931 12.321 20.0974 12.3175 20.1017L11.9321 20.5645C11.9286 20.5689 11.9249 20.573 11.9209 20.5771L11.4796 21.0405C11.4757 21.0447 11.4716 21.0488 11.4673 21.0526L10.9953 21.4846C10.9911 21.4885 10.9866 21.4923 10.9821 21.4959L10.4816 21.8944C10.4771 21.8981 10.4724 21.9016 10.4677 21.9048L9.9411 22.2681C9.93637 22.2715 9.93148 22.2745 9.92645 22.2774L9.37622 22.6038C9.37118 22.6067 9.36615 22.6094 9.36096 22.612L8.78967 22.8998C8.78448 22.9024 8.77929 22.9049 8.77395 22.9071L8.1842 23.1549C8.17886 23.1572 8.17352 23.1594 8.16803 23.1612L7.56271 23.368C7.55722 23.3698 7.55172 23.3715 7.54608 23.373L6.9281 23.5378C6.92245 23.5393 6.91681 23.5405 6.91116 23.5418L6.28326 23.6637C6.27761 23.6647 6.27197 23.6657 6.26617 23.6664L5.6314 23.745C5.62561 23.7458 5.61996 23.7462 5.61416 23.7465L4.97543 23.7813C4.83642 23.7889 4.7174 23.6823 4.70993 23.543C4.7023 23.4038 4.80896 23.2848 4.94796 23.2773L5.5867 23.2424L5.56945 23.2439L6.20422 23.1653L6.18713 23.1681L6.81503 23.0461L6.79824 23.05L7.41623 22.8852L7.39975 22.8902L8.00506 22.6834L7.98889 22.6895L8.57864 22.4416L8.56292 22.4489L9.13421 22.1611L9.11911 22.1694L9.66934 21.8431L9.65484 21.8525L10.1814 21.4891L10.1675 21.4994L10.668 21.1008L10.6549 21.1121L11.1269 20.68L11.1145 20.6922L11.5558 20.2288L11.5446 20.2413L11.9301 19.7785L11.92 19.7913L12.2748 19.3044L12.2656 19.318L12.5883 18.8092L12.58 18.8233L12.8691 18.2947L12.8618 18.3092L13.1163 17.7631L13.1099 17.7782L13.3285 17.2167L13.3232 17.2321L13.5052 16.6577L13.5008 16.6735L13.6453 16.0884L13.642 16.1045L13.7485 15.5114L13.7462 15.5275L13.8142 14.9288L13.813 14.9451L13.8423 14.3433L13.842 14.3596L13.8325 13.7571C13.8303 13.6177 13.9413 13.5028 14.0807 13.5007C14.22 13.4984 14.3347 13.6097 14.3368 13.7491Z" fill="black"/>
<path d="M14.4597 13.6296L15.1483 13.2805C15.1527 13.2782 15.1573 13.2761 15.1619 13.2741L15.8702 12.9669C15.8748 12.9648 15.8795 12.963 15.8841 12.9613L16.6095 12.697C16.6142 12.6952 16.619 12.6937 16.6238 12.6923L17.3636 12.4716C17.3685 12.4703 17.3734 12.4691 17.3782 12.4678L18.1299 12.2921C18.1348 12.2908 18.1396 12.2899 18.1447 12.289L18.9055 12.1584C18.9104 12.1576 18.9154 12.1569 18.9204 12.1562L19.6877 12.0714C19.6927 12.071 19.6976 12.0705 19.7026 12.0702L20.4736 12.0314C20.4787 12.0311 20.4837 12.0311 20.4887 12.0311L21.2605 12.0385C21.2656 12.0386 21.2706 12.0388 21.2756 12.0391L22.0457 12.0926C22.0505 12.0929 22.0554 12.0934 22.0601 12.094L22.7631 12.1837C22.7676 12.1843 22.7722 12.1849 22.7768 12.1859L23.4738 12.3139C23.4782 12.3148 23.4828 12.3157 23.4874 12.3168L24.1763 12.4829C24.1808 12.484 24.1852 12.4852 24.1896 12.4866L24.8685 12.6903C24.8729 12.6915 24.8772 12.6931 24.8816 12.6946L25.5482 12.9354C25.5525 12.9369 25.5568 12.9386 25.5611 12.9404L26.2135 13.2173C26.2178 13.2192 26.2219 13.221 26.226 13.2231L26.8623 13.5355C26.8665 13.5375 26.8706 13.5396 26.8745 13.5419L27.4927 13.8887C27.4968 13.891 27.5008 13.8933 27.5046 13.8959L28.1029 14.2762C28.1067 14.2786 28.1105 14.2812 28.1143 14.2838L28.6908 14.6964C28.8042 14.7774 28.8303 14.9352 28.7492 15.0486C28.6682 15.1619 28.5107 15.1882 28.3974 15.107L27.8209 14.6945L27.8323 14.7023L27.2342 14.3221L27.2461 14.3291L26.628 13.9823L26.6402 13.9887L26.0039 13.6763L26.0165 13.6821L25.3641 13.4052L25.377 13.4102L24.7104 13.1696L24.7235 13.1739L24.0448 12.9702L24.0581 12.9737L23.3691 12.8075L23.3827 12.8104L22.6857 12.6824L22.6993 12.6845L21.9963 12.5949L22.0108 12.5963L21.2407 12.5428L21.2558 12.5434L20.4839 12.536L20.499 12.5357L19.7279 12.5745L19.743 12.5733L18.9758 12.6581L18.9908 12.656L18.2298 12.7866L18.2446 12.7835L17.493 12.9595L17.5076 12.9555L16.7677 13.1761L16.7821 13.1713L16.0568 13.4357L16.0707 13.4301L15.3625 13.7374L15.3761 13.731L14.6875 14.0801C14.5633 14.1429 14.4115 14.0932 14.3486 13.9688C14.2856 13.8445 14.3353 13.6927 14.4597 13.6296Z" fill="black"/>
<path d="M10.6114 6.12659L11.2511 5.7384C11.2544 5.73627 11.2578 5.73428 11.2613 5.73245L11.9183 5.37448C11.9217 5.37265 11.9252 5.37082 11.9287 5.36914L12.6018 5.04245C12.6053 5.04062 12.6089 5.03909 12.6126 5.03757L13.3002 4.74261C13.3037 4.74109 13.3073 4.73956 13.311 4.73819L14.0117 4.47589C14.0153 4.47452 14.019 4.47314 14.0228 4.47192L14.735 4.24274C14.7386 4.24152 14.7424 4.24045 14.7462 4.23938L15.4683 4.04361C15.4721 4.04269 15.4759 4.04163 15.4797 4.04086L16.2102 3.87912C16.214 3.87836 16.2178 3.87759 16.2216 3.87683L16.9588 3.74957C16.9629 3.74881 16.967 3.7482 16.9711 3.74774L17.7986 3.64673C17.803 3.64612 17.8073 3.64581 17.8117 3.64551L18.6433 3.58768C18.6476 3.58737 18.652 3.58722 18.6565 3.58722L19.4899 3.57288C19.4943 3.57288 19.4986 3.57288 19.503 3.57303L20.3361 3.60217C20.3404 3.60233 20.3448 3.60263 20.3493 3.60309L21.1797 3.67572C21.1839 3.67603 21.1884 3.67648 21.1926 3.67709L22.0181 3.79306C22.0225 3.79367 22.0268 3.79428 22.0311 3.7952L22.8494 3.95389C22.8538 3.9548 22.8581 3.95572 22.8624 3.95679L23.6713 4.15805C23.8065 4.19162 23.8889 4.32849 23.8553 4.46384C23.8217 4.59918 23.6848 4.68158 23.5496 4.64801L22.7406 4.44675L22.7534 4.44949L21.9351 4.2908L21.9481 4.29294L21.1226 4.17712L21.1357 4.17865L20.3053 4.10602L20.3184 4.10678L19.4853 4.07748L19.4984 4.07764L18.665 4.09198L18.6781 4.09137L17.8467 4.14905L17.8596 4.14783L17.0323 4.24884L17.0447 4.24701L16.3075 4.37442L16.319 4.37213L15.5887 4.53372L15.6001 4.53098L14.8781 4.72659L14.8894 4.72324L14.1772 4.95258L14.1884 4.94876L13.4878 5.21106L13.4988 5.20663L12.8113 5.50159L12.822 5.4967L12.1489 5.82339L12.1594 5.81805L11.5024 6.17587L11.5126 6.16992L10.873 6.55826C10.7539 6.63059 10.5988 6.59259 10.5266 6.47327C10.4543 6.3541 10.4922 6.19891 10.6114 6.12659Z" fill="black"/>
<path d="M11.559 9.09149L12.3068 8.68286C12.3103 8.68103 12.314 8.6792 12.3175 8.67737L13.0843 8.30521C13.0879 8.30338 13.0916 8.3017 13.0952 8.30017L13.8789 7.96524C13.8826 7.96356 13.8863 7.96219 13.8901 7.96066L14.6889 7.66388C14.6927 7.66251 14.6965 7.66113 14.7003 7.65991L15.5125 7.40173C15.5164 7.40051 15.5202 7.39944 15.5241 7.39838L16.3477 7.17957C16.3516 7.1785 16.3554 7.17758 16.3594 7.17667L17.1925 6.99783C17.1965 6.99692 17.2005 6.99615 17.2044 6.99554L18.0452 6.85684C18.0492 6.85623 18.0531 6.85562 18.0572 6.85516L18.9037 6.75705C18.9078 6.75659 18.9117 6.75613 18.9159 6.75583L19.7855 6.69769C19.7896 6.69739 19.7937 6.69724 19.7978 6.69724L20.6691 6.68182C20.6732 6.68182 20.6773 6.68182 20.6815 6.68198L21.5526 6.70944C21.5567 6.70959 21.5608 6.7099 21.5649 6.71021L22.4336 6.78055C22.4377 6.78085 22.4419 6.78131 22.446 6.78177L23.3101 6.89468C23.3142 6.89529 23.3182 6.8959 23.3223 6.89667L24.1798 7.052C24.184 7.05261 24.1879 7.05353 24.192 7.05444L25.0409 7.25174C25.0449 7.25266 25.049 7.25372 25.0529 7.25479L25.8911 7.49359C25.8951 7.49466 25.899 7.49588 25.903 7.49725L26.7284 7.77695C26.8603 7.82166 26.9311 7.96494 26.8864 8.09692C26.8417 8.22906 26.6986 8.29987 26.5666 8.25516L25.7411 7.97546L25.753 7.97913L24.9149 7.74033L24.9268 7.74353L24.0779 7.54623L24.0901 7.54868L23.2324 7.39349L23.2448 7.39532L22.3805 7.28241L22.3929 7.28378L21.5243 7.21344L21.5367 7.21405L20.6656 7.18658L20.6779 7.18674L19.8067 7.202L19.819 7.20154L18.9494 7.25967L18.9616 7.25845L18.1152 7.35657L18.1273 7.35489L17.2865 7.49359L17.2984 7.49146L16.4653 7.67029L16.477 7.66754L15.6535 7.88635L15.6651 7.883L14.8531 8.14102L14.8645 8.13705L14.0657 8.43399L14.077 8.42957L13.2933 8.7645L13.3044 8.75946L12.5377 9.13162L12.5485 9.12613L11.8007 9.53476C11.6783 9.60144 11.5251 9.55643 11.4584 9.43405C11.3916 9.31168 11.4366 9.15833 11.559 9.09149Z" fill="black"/>
<path d="M8.97934 22.5418L8.34305 21.8083L8.33649 21.8006L7.72995 21.042L7.72384 21.0341L7.14813 20.2519L7.14233 20.2437L6.59836 19.4393L6.59286 19.4307L6.08139 18.6051L6.07635 18.5964L5.5983 17.7509L5.59357 17.7419L5.14969 16.8779L5.14526 16.8689L4.73648 15.9879L4.73236 15.9786L4.35852 15.0806L4.35486 15.0711L4.01733 14.159L4.01398 14.1493L3.71322 13.2242L3.71033 13.2146L3.44681 12.2782L3.44421 12.2684L3.21853 11.3222L3.21625 11.3123L3.02856 10.3577L3.02688 10.3478L2.8775 9.38646L2.87613 9.37654L2.7655 8.41005C2.74963 8.2715 2.84897 8.14638 2.98721 8.13051C3.12561 8.11464 3.25073 8.21398 3.2666 8.35253L3.37738 9.31902L3.37601 9.30895L3.52524 10.2703L3.52356 10.2603L3.71124 11.2148L3.7091 11.2049L3.93493 12.151L3.93234 12.1413L4.19586 13.0777L4.19296 13.0681L4.49371 13.9931L4.49035 13.9836L4.82788 14.8958L4.82422 14.8865L5.19806 15.7845L5.19394 15.7752L5.60287 16.6562L5.59845 16.6472L6.04217 17.5112L6.03744 17.5023L6.51535 18.3478L6.51016 18.3391L7.02164 19.1648L7.01614 19.1562L7.56012 19.9608L7.55432 19.9526L8.13003 20.7346L8.12378 20.7266L8.73031 21.485L8.72391 21.4772L9.3602 22.2109C9.4516 22.316 9.44031 22.4755 9.33517 22.5669C9.23004 22.6583 9.07074 22.6471 8.97934 22.5418Z" fill="black"/>
<path d="M11.9043 20.2651L11.2463 19.4664C11.2442 19.4637 11.2421 19.4609 11.2399 19.4582L10.6157 18.6327C10.6136 18.6299 10.6116 18.627 10.6094 18.6241L10.0201 17.7735C10.0182 17.7706 10.0162 17.7677 10.0143 17.7648L9.46075 16.8903C9.45892 16.8872 9.45709 16.8843 9.45541 16.8813L8.93859 15.9845C8.93691 15.9815 8.93524 15.9784 8.93356 15.9754L8.45458 15.0578C8.45306 15.0546 8.45138 15.0516 8.45001 15.0484L8.00949 14.1118C8.00796 14.1086 8.00659 14.1054 8.00521 14.1022L7.60406 13.1479C7.60269 13.1447 7.60147 13.1415 7.60009 13.1381L7.23785 12.1649C7.23663 12.1616 7.23541 12.1582 7.23434 12.1549L6.91299 11.1673C6.91192 11.164 6.91085 11.1606 6.90994 11.1572L6.62994 10.157C6.62902 10.1537 6.62811 10.1503 6.62734 10.1468L6.38931 9.13591C6.38839 9.1324 6.38778 9.12905 6.38702 9.12554L6.1914 8.10549C6.19064 8.10198 6.19018 8.09862 6.18957 8.09511L6.03668 7.06774C6.03607 7.06423 6.03561 7.06087 6.0353 7.05736L5.92529 6.02449C5.92483 6.02098 5.92452 6.01747 5.92437 6.01396L5.85754 4.97743C5.84854 4.83827 5.95397 4.71819 6.09298 4.70934C6.23199 4.70033 6.35192 4.80577 6.36093 4.94493L6.42776 5.98146L6.42684 5.97093L6.53686 7.0038L6.53549 6.99327L6.68853 8.02065L6.6867 8.01027L6.88247 9.03032L6.88018 9.0201L7.11822 10.031L7.11563 10.0209L7.39562 11.021L7.39257 11.0109L7.71408 11.9986L7.71057 11.9885L8.07281 12.9619L8.06899 12.9521L8.47015 13.9063L8.46588 13.8968L8.9064 14.8334L8.90167 14.8239L9.38064 15.7414L9.3756 15.7323L9.89242 16.629L9.88693 16.62L10.4405 17.4945L10.4347 17.4858L11.024 18.3365L11.0179 18.328L11.6421 19.1535L11.6356 19.1452L12.2935 19.944C12.3822 20.0516 12.3669 20.2106 12.2594 20.2992C12.1519 20.388 11.9929 20.3726 11.9043 20.2651Z" fill="black"/>
<path d="M20.0986 12.5153L20.0478 13.405C20.0475 13.4101 20.047 13.415 20.0464 13.4199L19.9435 14.3052C19.9429 14.31 19.9422 14.3149 19.9414 14.3198L19.7868 15.1975C19.7859 15.2022 19.7848 15.2071 19.7838 15.212L19.5779 16.079C19.5769 16.0839 19.5756 16.0886 19.5741 16.0933L19.3179 16.9469C19.3166 16.9516 19.3149 16.9562 19.3132 16.961L19.0074 17.7979C19.0057 17.8025 19.0039 17.8071 19.0019 17.8116L18.6476 18.6292C18.6456 18.6338 18.6435 18.6382 18.6412 18.6426L18.2396 19.4381C18.2375 19.4425 18.235 19.4468 18.2326 19.451L17.785 20.2215C17.7824 20.2257 17.7798 20.23 17.7771 20.2341L17.2852 20.9769C17.2824 20.981 17.2797 20.9852 17.2766 20.9891L16.7419 21.7017C16.739 21.7057 16.736 21.7095 16.7329 21.7132L16.1711 22.378C16.1679 22.3816 16.1647 22.3853 16.1613 22.3888L15.5624 23.0202C15.5591 23.0237 15.5557 23.0272 15.5522 23.0304L14.9181 23.6266C14.9145 23.6298 14.9109 23.633 14.9072 23.6362L14.24 24.195C14.2363 24.198 14.2325 24.2009 14.2287 24.2038L13.5304 24.7234C13.5266 24.7263 13.5226 24.7291 13.5187 24.7318L12.7919 25.2105C12.7878 25.2131 12.7837 25.2157 12.7795 25.2181L12.0265 25.6542C12.0224 25.6566 12.0181 25.6589 12.0139 25.6611L11.2372 26.0534C11.2329 26.0555 11.2285 26.0576 11.2241 26.0596L10.4262 26.4066C10.4217 26.4086 10.4173 26.4104 10.4127 26.4121L9.59625 26.7128C9.59182 26.7145 9.58725 26.7161 9.58267 26.7174L8.7503 26.9709C8.61709 27.0115 8.4761 26.9362 8.43551 26.8029C8.39508 26.6694 8.47015 26.5284 8.60351 26.4878L9.43573 26.2343L9.42215 26.2391L10.2385 25.9383L10.2251 25.9437L11.0229 25.5965L11.01 25.6026L11.7866 25.2105L11.7738 25.2173L12.5269 24.7811L12.5145 24.7887L13.2413 24.31L13.2295 24.3183L13.9276 23.7987L13.9163 23.8077L14.5834 23.249L14.5726 23.2586L15.2068 22.6624L15.1965 22.6726L15.7956 22.0412L15.7858 22.0519L16.3477 21.3871L16.3386 21.3987L16.8733 20.6859L16.8648 20.698L17.3567 19.9552L17.3489 19.9677L17.7965 19.1973L17.7895 19.2104L18.1911 18.415L18.1848 18.4284L18.5391 17.6107L18.5336 17.6246L18.8394 16.7875L18.8348 16.8015L19.091 15.9481L19.0872 15.9624L19.2931 15.0953L19.29 15.1098L19.4446 14.2321L19.4424 14.2467L19.5454 13.3616L19.5441 13.3764L19.5949 12.4865C19.603 12.3473 19.7221 12.241 19.8611 12.2489C20.0001 12.2568 20.1065 12.3761 20.0986 12.5153Z" fill="black"/>
<path d="M24.4066 13.0791L24.2976 14.1359C24.297 14.1406 24.2964 14.1454 24.2956 14.1501L24.1272 15.1991C24.1264 15.2039 24.1255 15.2085 24.1244 15.2132L23.8969 16.2509C23.8959 16.2555 23.8946 16.2602 23.8934 16.2648L23.6075 17.2881C23.6063 17.2927 23.6047 17.2971 23.6032 17.3017L23.2599 18.3071C23.2584 18.3115 23.2567 18.3161 23.255 18.3205L22.8554 19.3048C22.8535 19.3093 22.8517 19.3135 22.8496 19.3178L22.395 20.278C22.3929 20.2823 22.3907 20.2866 22.3885 20.2907L21.8803 21.2236C21.878 21.2277 21.8756 21.2319 21.8732 21.2358L21.313 22.1385C21.3106 22.1425 21.3078 22.1465 21.3051 22.1504L20.6909 23.0252C20.6882 23.029 20.6853 23.033 20.6824 23.0367L20.0194 23.875C20.0163 23.8788 20.0133 23.8825 20.0101 23.886L19.3004 24.6852C19.2973 24.6887 19.294 24.6922 19.2906 24.6958L18.5367 25.4532C18.5333 25.4566 18.5298 25.4598 18.5261 25.463L17.7304 26.1763C17.7269 26.1795 17.7232 26.1826 17.7194 26.1856L16.8843 26.8523C16.8806 26.8553 16.8768 26.8582 16.8729 26.861L16.0011 27.479C15.9973 27.4817 15.9932 27.4845 15.9892 27.487L15.0838 28.0544C15.0796 28.057 15.0755 28.0593 15.0714 28.0617L14.1351 28.5765C14.0131 28.6437 13.8597 28.599 13.7926 28.4767C13.7256 28.3547 13.7701 28.2012 13.8922 28.134L14.8285 27.6192L14.8161 27.6265L15.7214 27.059L15.7095 27.067L16.5813 26.449L16.5698 26.4577L17.4049 25.7909L17.3939 25.8002L18.1897 25.087L18.1793 25.0968L18.9333 24.3393L18.9233 24.3498L19.633 23.5507L19.6237 23.5617L20.2867 22.7234L20.2782 22.7349L20.8925 21.8601L20.8845 21.8721L21.4447 20.9696L21.4374 20.9819L21.9456 20.049L21.9391 20.0618L22.3938 19.1016L22.388 19.1147L22.7876 18.1304L22.7826 18.1438L23.1259 17.1384L23.1216 17.152L23.4076 16.1289L23.4042 16.1428L23.6317 15.1048L23.6291 15.1189L23.7976 14.07L23.7958 14.084L23.9047 13.0272C23.9191 12.8885 24.043 12.7878 24.1815 12.802C24.3201 12.8163 24.4208 12.9404 24.4066 13.0791Z" fill="black"/>
<path d="M21.7154 13.7598L21.713 13.7625C21.6838 13.7915 21.646 13.8356 21.5994 13.8947C21.4694 14.0744 21.3351 14.2566 21.1966 14.4412C21.1874 14.4527 21.1674 14.4846 21.1363 14.5369C21.1258 14.5535 21.0927 14.6173 21.0367 14.7281C20.9639 14.8524 20.9148 14.935 20.8893 14.9759C20.8025 15.1196 20.7216 15.2405 20.6467 15.3381C20.6686 15.3091 20.6984 15.2716 20.7359 15.2255C20.8595 15.0797 20.9486 14.9713 21.0034 14.9004C21.0245 14.8756 21.1139 14.7545 21.2718 14.537C21.2927 14.5073 21.3297 14.4479 21.3828 14.3588C21.5865 14.0019 21.6899 13.8232 21.6927 13.8229L21.7169 13.7781C21.7191 13.7735 21.7186 13.7674 21.7154 13.7598Z" fill="black"/>
<path d="M22.1629 14.3533L22.113 14.4223C21.823 14.8369 21.4592 15.3214 21.0217 15.876C20.5167 16.6069 20.2193 17.0261 20.1298 17.1335C19.8418 17.5142 19.5831 17.816 19.3542 18.0391C20.0085 17.4025 20.3778 17.0335 20.462 16.9324C20.7741 16.5886 21.0254 16.2831 21.2155 16.0161C21.4658 15.6734 21.7816 15.1192 22.1629 14.3533Z" fill="black"/>
<path d="M22.0056 16.1558L21.9719 16.2142C21.7705 16.5708 21.5138 16.941 21.2022 17.3246L20.4425 18.1649C19.8762 18.8772 19.4197 19.4298 19.0727 19.8231C18.7163 20.2276 18.4238 20.5315 18.1956 20.7349C18.2347 20.691 18.636 20.3457 19.3997 19.6993L19.7845 19.3523C20.0841 19.0758 20.3535 18.7966 20.593 18.5146C20.8253 18.245 21.1375 17.7907 21.5297 17.1516C21.826 16.6373 21.9846 16.3053 22.0056 16.1558Z" fill="black"/>
<path d="M20.8609 19.2358L20.8559 19.2436C20.7501 19.4066 20.6348 19.5497 20.5098 19.6732L19.8418 20.2899C19.7595 20.3635 19.263 20.8475 18.3525 21.7419C18.1871 21.9022 18.0089 22.0663 17.8178 22.2345C18.5464 21.7911 19.0744 21.4032 19.4017 21.071C19.7647 20.6995 20.1349 20.2885 20.5122 19.8381C20.7683 19.4838 20.8846 19.283 20.8609 19.2358Z" fill="black"/>
<path d="M19.6454 21.7493L19.6159 21.7708C19.3401 21.9672 19.08 22.1347 18.8359 22.2733C18.5759 22.4249 18.1975 22.6268 17.7008 22.8787C17.4374 23.0592 16.944 23.3575 16.2207 23.7738C15.9 23.9604 15.5823 24.1293 15.2676 24.2807L15.439 24.203L15.7431 24.082L17.0352 23.6028L17.7898 23.3084C17.8473 23.286 17.8946 23.2642 17.9314 23.2431C18.5416 22.8433 19.1129 22.3453 19.6454 21.7493Z" fill="black"/>
<path d="M18.2979 23.9158L18.2883 23.9184C18.2472 23.9261 18.1819 23.9481 18.0923 23.984L17.4773 24.2747C16.8553 24.5211 16.523 24.6563 16.4801 24.6801C16.0219 24.9358 15.5283 25.2024 14.9997 25.48C14.7931 25.5909 14.6043 25.68 14.4331 25.7473C14.521 25.7117 14.6452 25.6693 14.8055 25.6199C15.4022 25.4342 15.8867 25.2883 16.2585 25.1824C16.4084 25.1348 16.514 25.0957 16.5752 25.0649C16.7366 24.9821 17.0001 24.8215 17.3654 24.5832L18.062 24.0845L18.2846 23.9501L18.2979 23.9158ZM14.4226 25.7509L14.4131 25.7543C14.3906 25.7622 14.3735 25.768 14.3616 25.7717C14.3723 25.7685 14.382 25.7654 14.3907 25.7625C14.4002 25.7593 14.4075 25.7567 14.4128 25.7548L14.4231 25.7509H14.4226Z" fill="black"/>
<path d="M16.3008 25.7838L16.2707 25.7908L15.1916 26.0255L14.7844 26.1082C14.7482 26.1155 14.7203 26.1233 14.7008 26.1315C14.6939 26.1344 14.6875 26.1376 14.6817 26.1413C14.6574 26.1609 14.6384 26.1741 14.6246 26.1803C14.6188 26.1846 14.5915 26.1948 14.543 26.211C14.5306 26.2174 14.5235 26.222 14.5216 26.2247C14.5044 26.2308 14.4929 26.2723 14.4873 26.3492C14.4876 26.354 14.4916 26.3552 14.4997 26.3528C14.5283 26.4089 14.5558 26.4451 14.5816 26.4615L14.5915 26.4638C14.6243 26.4583 14.6484 26.4562 14.6637 26.4573C14.6773 26.4574 14.696 26.4605 14.7195 26.4664L14.7395 26.468C14.7539 26.4678 14.7679 26.466 14.7816 26.4626C14.9886 26.4008 15.2772 26.2902 15.6477 26.1304C15.8272 26.0511 15.9958 25.9688 16.1534 25.8839C16.2155 25.8521 16.2495 25.826 16.2553 25.8056C16.2721 25.7952 16.2872 25.7879 16.3008 25.7838Z" fill="black"/>
<path d="M14.041 27.136L14.0134 27.1422C13.9728 27.1506 13.9207 27.1598 13.8574 27.1696L13.3244 27.2481L13.1862 27.2703C13.0923 27.2858 12.9953 27.306 12.8954 27.3308C12.8455 27.3434 12.7948 27.3575 12.7435 27.3736L12.6663 27.399C12.4561 27.4805 12.2398 27.5551 12.018 27.6227C11.9063 27.6606 11.7 27.7106 11.3988 27.7726C11.5263 27.7462 11.7314 27.7148 12.0142 27.6783C12.1623 27.6604 12.2519 27.6504 12.2827 27.6481C12.5761 27.623 12.7473 27.6073 12.7962 27.6008C12.85 27.5945 12.9027 27.5872 12.9539 27.5788L13.0299 27.5648C13.1221 27.5539 13.3163 27.486 13.6127 27.3614C13.6945 27.3278 13.7997 27.2779 13.9285 27.2117C13.9578 27.1978 13.9816 27.1789 13.9999 27.1549C14.0153 27.1459 14.0289 27.1396 14.041 27.136Z" fill="black"/>
<path d="M5.2037 6.99677L5.18875 7.02209C4.84939 7.57156 4.57535 8.23639 4.36661 9.01657C4.36294 9.03183 4.35806 9.07104 4.35211 9.13437L4.3312 9.53125C4.32525 9.68628 4.32296 9.85565 4.32449 10.0395C4.32632 10.2605 4.33075 10.457 4.33761 10.6291C4.33746 10.6673 4.34936 10.8609 4.37301 11.21L4.38507 11.4861C4.375 11.3188 4.38049 11.1566 4.40185 10.9995C4.41742 10.8748 4.43649 10.7425 4.45907 10.6027C4.5227 10.2072 4.56772 9.94003 4.59396 9.80087C4.65942 9.4516 4.70825 9.21219 4.74029 9.08295C4.82177 8.58353 4.88754 8.22174 4.93789 7.99759C4.96444 7.87613 4.99267 7.75864 5.02273 7.64526L5.14618 7.2023C5.15594 7.17789 5.16739 7.1434 5.18051 7.09854C5.18631 7.07657 5.18844 7.05643 5.18738 7.03781L5.2037 6.99677Z" fill="black"/>
<path d="M5.23361 8.59839L5.23315 8.60175C5.2214 8.71069 5.21408 8.77081 5.21133 8.78226C5.19562 8.89044 5.17639 9.01083 5.15365 9.14359L5.04074 9.74478L4.9765 10.0542L4.89502 10.6182C4.88815 10.6768 4.88495 10.7191 4.8851 10.7448C4.88479 10.7619 4.88495 10.779 4.88571 10.7963L4.89364 10.9244C4.89715 11.0599 4.90204 11.1838 4.90829 11.2963C4.91135 11.3578 4.91577 11.4181 4.92126 11.4773C4.94049 11.6796 4.96704 11.9333 5.00122 12.2387C5.00717 12.2965 5.03174 12.4866 5.07507 12.8087C5.08209 12.8744 5.08789 12.9461 5.09216 13.0244C5.08652 12.8995 5.08743 12.7729 5.09491 12.6444L5.18616 11.2501C5.19333 11.1553 5.19806 11.0993 5.20065 11.0821C5.20035 11.0705 5.21332 11.0064 5.23941 10.89C5.2446 10.8558 5.24765 10.8217 5.24841 10.7879C5.24917 10.754 5.24902 10.7203 5.2478 10.6869C5.23956 10.4961 5.23575 10.3895 5.23605 10.3669C5.2359 10.3165 5.23514 10.241 5.23392 10.1404L5.23544 10.0153C5.23407 9.99365 5.23346 9.96359 5.23376 9.92514C5.24368 9.55176 5.25024 9.32227 5.2536 9.23636C5.25223 9.1738 5.25192 9.11459 5.25253 9.05859L5.2597 8.72061C5.25818 8.65622 5.25665 8.62128 5.25497 8.61609L5.23361 8.59839Z" fill="black"/>
<path d="M5.78689 10.689L5.78109 10.7181L5.6813 11.1846C5.6018 11.5871 5.55359 11.8383 5.5368 11.938C5.51178 12.0746 5.49026 12.2106 5.4721 12.3462C5.46035 12.4358 5.45211 12.5197 5.44738 12.5981C5.4451 12.6371 5.44403 12.6737 5.44403 12.7082L5.45272 12.9438C5.45654 13.1003 5.45929 13.1909 5.46112 13.2157C5.47027 13.3936 5.48156 13.5369 5.49514 13.6458C5.49621 13.6786 5.51666 13.709 5.55633 13.7369C5.55847 13.7381 5.55923 13.7337 5.55877 13.7236C5.58776 13.7035 5.60699 13.6821 5.61645 13.6595L5.61798 13.651C5.62194 13.5817 5.62469 13.5356 5.62652 13.5131L5.63766 13.382L5.67993 12.9598C5.70327 12.8089 5.71838 12.7057 5.72525 12.6505C5.73669 12.5644 5.74493 12.473 5.74981 12.3766L5.75195 12.3053L5.75714 11.7574C5.75866 11.6486 5.75988 11.5837 5.76049 11.5631L5.78033 10.8995C5.78292 10.8734 5.78506 10.837 5.78704 10.79C5.78765 10.7669 5.78643 10.7469 5.78323 10.73L5.78354 10.7212L5.78735 10.689H5.78689Z" fill="black"/>
<path d="M6.35131 12.7153L6.34842 12.7283C6.32934 12.8047 6.28708 13.0175 6.22161 13.3666C6.20102 13.4832 6.17843 13.6292 6.15387 13.8044C6.1055 14.179 6.06643 14.5684 6.03683 14.9724C6.03607 15.1096 6.03866 15.2242 6.04477 15.3165C6.05713 15.5155 6.07147 15.6832 6.0878 15.8194C6.09634 15.8924 6.10977 15.9786 6.12777 16.0782C6.14395 16.1676 6.17111 16.3004 6.20941 16.4766C6.21688 16.5125 6.22451 16.5564 6.23275 16.6082C6.21566 16.4942 6.21032 16.2883 6.21673 15.9906C6.22451 15.7553 6.2323 15.5938 6.24038 15.5054C6.25351 15.3328 6.27182 15.1606 6.29547 14.9883C6.2973 14.9736 6.29928 14.9411 6.30127 14.8908C6.32782 14.1669 6.34155 13.7693 6.34262 13.698C6.34567 13.5823 6.34719 13.4996 6.34735 13.4497C6.3475 13.4157 6.34689 13.3609 6.34521 13.2852C6.34491 13.2613 6.34552 13.2218 6.34689 13.1662C6.34719 13.1336 6.35299 13.0075 6.36413 12.7881C6.36505 12.7791 6.36444 12.7672 6.3623 12.7523C6.35299 12.7396 6.34933 12.7274 6.35131 12.7153Z" fill="black"/>
<path d="M7.45163 13.6316L7.44751 13.6414C7.35565 13.8656 7.28576 14.0943 7.238 14.3273C7.19574 14.533 7.15439 14.7544 7.1138 14.9918C7.05581 15.3467 7.01095 15.6125 6.97906 15.7892C6.97418 15.8077 6.96777 15.8611 6.95984 15.9494C6.9577 15.9681 6.95602 16.0189 6.9548 16.102L6.95678 16.3228C6.95343 16.4527 6.95236 16.5412 6.95404 16.5883C6.95678 16.7214 6.96411 16.8609 6.97571 17.0067C6.98639 17.1338 7.00226 17.2812 7.02347 17.4486C7.03552 17.5573 7.07168 17.8014 7.13211 18.181C7.14386 18.2721 7.15454 18.3761 7.1643 18.4926C7.15133 18.3297 7.14599 18.1632 7.14828 17.9931C7.16003 17.52 7.17102 17.2149 7.18109 17.0774C7.19085 16.8956 7.20627 16.7022 7.22717 16.4969C7.23282 16.4386 7.25494 16.2659 7.29355 15.979C7.29629 15.962 7.30072 15.9084 7.30682 15.8184C7.30819 15.8007 7.31048 15.7457 7.31369 15.6533L7.34924 14.5289C7.35412 14.3975 7.35931 14.3 7.36465 14.2365C7.37365 14.1263 7.38281 14.0381 7.39227 13.9718C7.41531 13.8254 7.43515 13.7233 7.45163 13.6658C7.45331 13.6588 7.45269 13.6504 7.44995 13.6408C7.45224 13.6316 7.45269 13.6286 7.45163 13.6316Z" fill="black"/>
<path d="M8.06381 16.0816L8.06305 16.0938C8.05984 16.1454 8.05313 16.2087 8.0426 16.2839C8.02078 16.4265 8.0014 16.5661 7.98416 16.7028L7.96844 16.7919C7.91977 17.1216 7.89062 17.3266 7.88101 17.4067C7.87124 17.4763 7.85095 17.654 7.81997 17.9401C7.81631 17.9751 7.81494 17.9996 7.81585 18.014C7.81723 18.0379 7.81875 18.0521 7.82028 18.0567C7.83691 18.1124 7.84546 18.1484 7.84561 18.1647C7.84637 18.1692 7.84744 18.1818 7.84881 18.2026C7.85186 18.279 7.854 18.3269 7.85553 18.3466L7.86132 18.4272C7.8656 18.4829 7.87338 18.556 7.88452 18.6465L8.02978 19.6892C8.03283 19.7126 8.03527 19.7396 8.03711 19.7701C8.03466 19.7338 8.03421 19.6992 8.03588 19.6662C8.05175 19.3448 8.06472 19 8.07495 18.6312C8.07785 18.5627 8.08166 18.4939 8.08609 18.4249C8.09921 18.2448 8.10623 18.1522 8.1076 18.147C8.10836 18.1309 8.11996 18.0956 8.14193 18.0416C8.14849 18.0184 8.15155 18.0044 8.15109 17.9993L8.14773 17.8226C8.14651 17.6395 8.14376 17.434 8.13949 17.2063C8.13675 17.0638 8.13308 16.9366 8.12851 16.8247L8.12591 16.7826C8.12164 16.7501 8.11447 16.6669 8.10455 16.5331C8.10211 16.4911 8.10043 16.4561 8.09951 16.428L8.09326 16.2272C8.09066 16.1786 8.08792 16.1382 8.08487 16.1056C8.08471 16.0981 8.08334 16.0932 8.08075 16.0909L8.06381 16.0816Z" fill="black"/>
<path d="M8.89923 17.3632L8.8948 17.379C8.84262 17.526 8.77838 17.7828 8.70224 18.1491L8.6679 18.357L8.62518 18.6748C8.61404 18.7523 8.59542 18.92 8.56964 19.1777C8.56872 19.1902 8.56918 19.2009 8.57101 19.2093L8.59542 19.2495C8.59787 19.2542 8.5997 19.2684 8.60077 19.2919L8.59985 19.6292L8.60046 20.0341C8.60061 20.0989 8.60138 20.1621 8.60275 20.2239C8.60366 20.2774 8.60702 20.3688 8.61297 20.4981C8.61648 20.578 8.6235 20.6926 8.63403 20.842C8.63617 20.8808 8.63739 20.9189 8.63784 20.9563C8.63845 20.902 8.64074 20.8554 8.64486 20.8165C8.6502 20.7651 8.65905 20.6945 8.67126 20.6044C8.72253 20.2484 8.7767 19.8909 8.83377 19.5319C8.84735 19.4413 8.85955 19.3537 8.87054 19.269L8.90091 19.2287C8.90731 19.2173 8.91037 19.2096 8.91006 19.2058L8.91067 19.1964L8.90976 19.1349C8.9064 18.9562 8.90411 18.85 8.90274 18.8163L8.89709 18.6667L8.88794 18.5007C8.88565 18.4203 8.8829 18.3535 8.8797 18.3002C8.87802 18.2587 8.8768 18.1694 8.87588 18.0323C8.87542 17.9506 8.87664 17.8804 8.8797 17.822C8.87985 17.8047 8.88565 17.7213 8.89679 17.5714L8.90518 17.4323C8.90686 17.4152 8.90457 17.3996 8.89801 17.3854L8.8977 17.3804C8.89755 17.3767 8.89831 17.3709 8.89968 17.3632H8.89923Z" fill="black"/>
<path d="M9.33517 18.8654H9.33426L9.32266 18.8657C9.34234 18.9364 9.35058 18.9873 9.34738 19.0186L9.3367 19.0826L9.32434 19.1338L9.30496 19.2374C9.28879 19.332 9.27902 19.3926 9.27597 19.4193C9.24942 19.6207 9.23248 19.7587 9.22516 19.833C9.21997 19.8864 9.21783 19.9288 9.21844 19.9601C9.22027 19.9837 9.22378 20.0025 9.22867 20.0164C9.25796 20.0847 9.2781 20.1491 9.28879 20.2094C9.3164 20.3475 9.33456 20.4349 9.34295 20.4716L9.42993 20.8561C9.44855 20.9478 9.46731 21.0557 9.48593 21.1799C9.46594 21.0294 9.45343 20.9078 9.44839 20.8153C9.44092 20.7084 9.43573 20.5691 9.43268 20.3972C9.431 20.3348 9.43191 20.2761 9.43558 20.2209C9.43695 20.2024 9.43878 20.1842 9.44107 20.1665L9.46152 20.0503C9.46472 20.0304 9.46564 20.008 9.46441 19.9828C9.4577 19.9277 9.44961 19.8685 9.44015 19.8052C9.43893 19.8 9.43466 19.7494 9.42749 19.6532C9.42535 19.6287 9.42108 19.5313 9.41467 19.3609L9.40628 19.2335L9.40155 19.1163C9.40033 19.1051 9.39834 19.0957 9.39575 19.088L9.39239 19.0569C9.38736 19.0449 9.38339 19.0322 9.38064 19.0189C9.37088 18.9652 9.36401 18.9306 9.35974 18.9152C9.34891 18.8758 9.34067 18.8592 9.33517 18.8654Z" fill="black"/>
<path d="M10.3099 19.2388L10.3098 19.2412L10.3052 19.2765C10.3036 19.3026 10.2986 19.3677 10.2901 19.4719C10.2873 19.5032 10.2843 19.5229 10.2812 19.531L10.2711 19.6508L10.2617 19.7077L10.2516 19.8188L10.2426 19.8691L10.2318 19.9706L10.2202 20.051C10.2171 20.0765 10.21 20.149 10.1987 20.2684L10.1993 20.2724L10.206 20.2805L10.242 20.3046L10.2509 20.3167C10.256 20.3855 10.2629 20.4613 10.2713 20.5446L10.3162 20.9711C10.3203 21.0118 10.3226 21.0393 10.3227 21.0535C10.323 21.0445 10.3236 21.0349 10.3247 21.0247C10.3319 20.9638 10.3397 20.8875 10.3481 20.7962L10.3896 20.325C10.39 20.3171 10.3931 20.3092 10.3987 20.3012L10.4318 20.2736C10.4361 20.2697 10.439 20.2631 10.4407 20.2538C10.441 20.2524 10.441 20.2484 10.4407 20.2419L10.4285 20.0847L10.4192 19.9996L10.4097 19.8873L10.4002 19.8377L10.3944 19.7873L10.3825 19.6984L10.3717 19.6433C10.3706 19.6375 10.3694 19.6285 10.3679 19.6166C10.3668 19.61 10.3638 19.5789 10.3584 19.5232C10.3555 19.5107 10.3534 19.4966 10.352 19.4808L10.3406 19.3119C10.3395 19.2974 10.3383 19.2845 10.3369 19.2734C10.3355 19.2615 10.3337 19.2534 10.3314 19.2495L10.3099 19.2388Z" fill="black"/>
<path d="M12.2185 6.1969L12.204 6.21628C11.9749 6.51733 11.8529 6.69724 11.8382 6.75583C11.8076 6.81931 11.7787 6.88553 11.7517 6.9548L11.508 7.60559C11.4633 7.71957 11.4285 7.8038 11.4035 7.85828C11.4709 7.70905 11.5266 7.59384 11.5706 7.51282L11.8832 6.95923C11.944 6.84891 11.985 6.77155 12.0064 6.72668C12.0514 6.63986 12.1127 6.49857 12.1904 6.30295C12.2014 6.27899 12.2058 6.25458 12.2035 6.22955L12.2058 6.22192L12.2185 6.1969Z" fill="black"/>
<path d="M13.2553 5.71289L13.2452 5.72388C12.7777 6.27884 12.4953 6.64597 12.3984 6.8251L12.383 6.87485C12.3694 6.95602 12.3604 7.00012 12.3557 7.00699C12.3282 7.04742 12.2238 7.35092 12.0425 7.91748C12.011 8.01376 11.9598 8.13675 11.8892 8.28644C11.9724 8.1105 12.0178 8.01743 12.0258 8.00735L12.4054 7.32361L12.5554 7.06146C12.5685 7.03827 12.5972 7.00043 12.6416 6.94794L12.6659 6.90765C12.8432 6.51199 12.9456 6.2883 12.9727 6.23672C13.0145 6.14395 13.1015 5.9903 13.2338 5.77606C13.2423 5.76416 13.2468 5.74768 13.2472 5.72647L13.2553 5.71289Z" fill="black"/>
<path d="M14.3504 5.44983L14.3394 5.46066C14.2329 5.5658 14.1142 5.70007 13.983 5.86334L13.6201 6.32431C13.5854 6.37238 13.5611 6.40961 13.5475 6.43616C13.5176 6.48651 13.4721 6.59119 13.4111 6.75003L12.9886 7.83463C12.971 7.88208 12.91 8.02094 12.8058 8.25119C12.9062 8.03787 13.0228 7.81342 13.1555 7.57782C13.3697 7.20428 13.5478 6.91086 13.69 6.69739L13.7491 6.58249C13.8405 6.37497 13.8977 6.24756 13.9209 6.20056C13.9529 6.13434 13.985 6.07071 14.0175 6.00952C14.0912 5.86761 14.1936 5.70236 14.3245 5.51407C14.334 5.50247 14.3394 5.48569 14.341 5.46387L14.3504 5.44983Z" fill="black"/>
<path d="M15.4764 4.92389L15.4654 4.93472C15.359 5.03986 15.2402 5.17413 15.1091 5.3374L14.7461 5.79837C14.7113 5.84644 14.6872 5.88367 14.6735 5.91022C14.6437 5.96057 14.5982 6.06525 14.537 6.22409L14.1147 7.30869C14.097 7.35599 14.0361 7.49484 13.9317 7.72525C14.0321 7.51193 14.1487 7.28748 14.2815 7.05188C14.4957 6.67834 14.6739 6.38492 14.816 6.17145L14.875 6.05655C14.9664 5.84903 15.0237 5.72162 15.047 5.67462C15.0789 5.6084 15.1111 5.54477 15.1434 5.48358C15.2171 5.34167 15.3195 5.17642 15.4506 4.98813C15.4599 4.97653 15.4654 4.95975 15.4669 4.93793L15.4764 4.92389Z" fill="black"/>
<path d="M16.5636 4.68158L16.5526 4.69241C16.4462 4.79755 16.3274 4.93182 16.1961 5.09509L15.8333 5.55606C15.7985 5.60413 15.7742 5.64136 15.7606 5.66791C15.7309 5.71826 15.6854 5.82294 15.6242 5.98178L15.2019 7.06638C15.1842 7.11383 15.1231 7.25253 15.0189 7.48294C15.1193 7.26962 15.2359 7.04517 15.3686 6.80957C15.5829 6.43604 15.7611 6.14261 15.9032 5.92914L15.9622 5.81424C16.0536 5.60672 16.1108 5.47931 16.1342 5.43231C16.1661 5.36609 16.1981 5.30246 16.2306 5.24127C16.3043 5.09937 16.4067 4.93411 16.5376 4.74582C16.5471 4.73422 16.5526 4.71744 16.5541 4.69562L16.5636 4.68158Z" fill="black"/>
<path d="M17.4747 4.4704L17.4637 4.48123C17.3572 4.58636 17.2385 4.72049 17.1072 4.88391L16.7444 5.34488C16.7096 5.39279 16.6853 5.43002 16.6718 5.45657C16.6418 5.50693 16.5964 5.6116 16.5353 5.7706L16.1128 6.85519C16.0953 6.9025 16.0342 7.04135 15.93 7.27176C16.0304 7.05829 16.147 6.83383 16.2798 6.59824C16.494 6.2247 16.6721 5.93127 16.8143 5.71796L16.8733 5.60306C16.9647 5.39539 17.0219 5.26813 17.0451 5.22113C17.0772 5.15491 17.1092 5.09113 17.1417 5.03009C17.2154 4.88803 17.3178 4.72293 17.4487 4.53464C17.4582 4.52289 17.4637 4.50626 17.4652 4.48428L17.4747 4.4704Z" fill="black"/>
<path d="M18.6214 4.34802L18.6104 4.35886C18.504 4.46399 18.3852 4.59827 18.2541 4.76169L17.8911 5.22266C17.8563 5.27057 17.8322 5.3078 17.8185 5.33435C17.7887 5.3847 17.7432 5.48938 17.682 5.64822L17.2597 6.73282C17.242 6.78027 17.1811 6.91913 17.0767 7.14938C17.1773 6.93607 17.2939 6.71161 17.4266 6.47601C17.6407 6.10248 17.8189 5.80905 17.961 5.59558L18.0202 5.48068C18.1114 5.27316 18.1688 5.1459 18.192 5.09891C18.2239 5.03268 18.2561 4.9689 18.2884 4.90771C18.3621 4.76581 18.4645 4.60056 18.5956 4.41226C18.605 4.40067 18.6104 4.38388 18.6119 4.36206L18.6214 4.34802Z" fill="black"/>
<path d="M19.6962 4.22241L19.6852 4.23325C19.5789 4.33823 19.4601 4.4725 19.3289 4.63593L18.9659 5.09689C18.9313 5.14481 18.907 5.18204 18.8933 5.20859C18.8635 5.25894 18.8181 5.36362 18.7569 5.52261L18.3345 6.60721C18.3168 6.65451 18.2559 6.79337 18.1517 7.02362C18.2521 6.8103 18.3687 6.58585 18.5014 6.35025C18.7157 5.97672 18.8937 5.68329 19.0358 5.46982L19.095 5.35492C19.1862 5.1474 19.2436 5.02014 19.2668 4.97314C19.2987 4.90692 19.3309 4.84314 19.3632 4.78195C19.4369 4.64005 19.5393 4.47495 19.6704 4.2865C19.6799 4.2749 19.6854 4.25827 19.6867 4.2363L19.6962 4.22241Z" fill="black"/>
<path d="M20.6445 4.03931L20.6335 4.05014C20.527 4.15512 20.4083 4.2894 20.2771 4.45282L19.9142 4.91379C19.8795 4.9617 19.8552 4.99893 19.8416 5.02548C19.8117 5.07584 19.7662 5.18051 19.7052 5.33951L19.2827 6.4241C19.2651 6.47141 19.2041 6.61026 19.0999 6.84052C19.2003 6.6272 19.3169 6.40274 19.4496 6.16714C19.6638 5.79361 19.8419 5.50018 19.9841 5.28671L20.0432 5.17181C20.1346 4.96429 20.1918 4.83704 20.215 4.79004C20.247 4.72382 20.2791 4.66003 20.3116 4.59885C20.3853 4.45694 20.4877 4.29184 20.6186 4.10339C20.6281 4.0918 20.6335 4.07516 20.6351 4.05319L20.6445 4.03931Z" fill="black"/>
<path d="M21.5807 4.09015L21.5697 4.10098C21.4633 4.20612 21.3445 4.34039 21.2134 4.50381L20.8504 4.96463C20.8156 5.0127 20.7915 5.04993 20.7777 5.07648C20.748 5.12683 20.7025 5.23151 20.6413 5.39035L20.219 6.47495C20.2013 6.5224 20.1404 6.66126 20.036 6.89151C20.1364 6.67819 20.2531 6.45374 20.3857 6.21814C20.6 5.8446 20.7782 5.55118 20.9203 5.33771L20.9795 5.22281C21.0707 5.01529 21.1281 4.88788 21.1513 4.84088C21.1832 4.77466 21.2154 4.71103 21.2477 4.64984C21.3214 4.50793 21.4238 4.34268 21.5549 4.15439C21.5643 4.14279 21.5697 4.12601 21.5712 4.10419L21.5807 4.09015Z" fill="black"/>
<path d="M22.8265 4.41608L22.8154 4.42691C22.709 4.53204 22.5903 4.66632 22.4591 4.82959L22.0962 5.29056C22.0615 5.33847 22.0372 5.37585 22.0236 5.4024C21.9937 5.45276 21.9482 5.55743 21.8872 5.71628L21.4647 6.80087C21.447 6.84818 21.3861 6.98703 21.2819 7.21744C21.3823 7.00412 21.4989 6.77966 21.6316 6.54407C21.8459 6.17053 22.0239 5.87695 22.166 5.66364L22.2252 5.54874C22.3164 5.34106 22.3738 5.21381 22.397 5.16681C22.4289 5.10059 22.4611 5.03696 22.4934 4.97577C22.5673 4.83371 22.6695 4.66861 22.8006 4.48032C22.8101 4.46872 22.8155 4.45193 22.8169 4.43011L22.8265 4.41608Z" fill="black"/>
<path d="M23.7498 4.56592L23.7389 4.57675C23.6325 4.68188 23.5136 4.81616 23.3826 4.97958L23.0196 5.4404C22.9848 5.48846 22.9607 5.5257 22.9469 5.55225C22.9172 5.6026 22.8717 5.70728 22.8105 5.86612L22.3881 6.95071C22.3704 6.99817 22.3096 7.13702 22.2052 7.36728C22.3056 7.15396 22.4222 6.9295 22.5549 6.69391C22.7692 6.32037 22.9474 6.02695 23.0894 5.81348L23.1485 5.69858C23.2399 5.49106 23.2971 5.36365 23.3205 5.31665C23.3524 5.25043 23.3845 5.1868 23.4169 5.12561C23.4906 4.9837 23.593 4.81845 23.7241 4.63016C23.7334 4.61856 23.7389 4.60178 23.7404 4.57996L23.7498 4.56592Z" fill="black"/>
<path d="M24.1183 5.31512L24.1182 5.31696L24.0947 5.37845C24.0936 5.38211 24.0851 5.39432 24.0691 5.41507L23.9919 5.51151L23.7003 5.85193L23.6519 5.92105C23.6481 5.92319 23.6433 5.93753 23.638 5.96423L23.6292 6.09073C23.6272 6.1066 23.6241 6.12262 23.62 6.13879C23.576 6.26544 23.5358 6.37744 23.4988 6.47464C23.4808 6.52148 23.4653 6.55444 23.452 6.57367C23.559 6.40079 23.643 6.26987 23.7039 6.18091C23.7228 6.15405 23.7416 6.13025 23.7602 6.1095C23.7717 6.09622 23.7979 6.0715 23.8391 6.03549C23.8504 6.0242 23.8614 6.00925 23.8721 5.99078C23.8998 5.92212 23.9247 5.86429 23.9465 5.81729L24.1313 5.43307C24.1418 5.39569 24.1457 5.36411 24.1431 5.33801C24.1428 5.33282 24.1409 5.32779 24.1377 5.32291L24.1183 5.31512Z" fill="black"/>
<path d="M24.7856 6.30493L24.7629 6.35452C24.7305 6.42776 24.6971 6.50681 24.6629 6.59195C24.6376 6.65436 24.5999 6.74957 24.5497 6.87744C24.5447 6.89041 24.536 6.91071 24.5236 6.93817L24.5395 6.9043C24.6248 6.71371 24.6796 6.58783 24.7038 6.52649L24.7345 6.44974C24.7443 6.42365 24.7516 6.40076 24.7565 6.38077C24.767 6.35178 24.7768 6.32645 24.7862 6.30493H24.7856Z" fill="black"/>
</g>
</g>
</g>
</g>
</g>
<defs>
<clipPath id="clip0_31_251">
<rect width="30" height="30" rx="15" fill="white"/>
</clipPath>
</defs>
</svg>
