<svg width="24" height="25" viewBox="0 0 24 25" fill="none" xmlns="http://www.w3.org/2000/svg">
<path d="M17.7366 0H6.23415C2.80976 0 0 2.78049 0 6.23415V18.2927C0 21.7171 2.78049 24.5268 6.23415 24.5268H17.7659C21.1902 24.5268 24 21.7463 24 18.2927V6.20488C23.9707 2.78049 21.1902 0 17.7366 0ZM19.8146 20.3707H15.3073C15.278 20.3707 15.2488 20.3707 15.2488 20.3415L11.0341 14.2244H11.0049C9.30732 16.1854 7.63902 18.1171 6 20.0195C5.91219 20.1366 5.79512 20.2244 5.70732 20.3122C5.67805 20.3415 5.64878 20.3415 5.61951 20.3415H4.39024C4.36098 20.3415 4.33171 20.3415 4.36098 20.3122L10.361 13.3463C10.3902 13.3171 10.3902 13.2878 10.361 13.2585L4.39024 4.56585V4.53659H8.92683C8.9561 4.53659 8.9561 4.53659 8.98537 4.56585L12.9659 10.3317C12.9659 10.3317 12.9659 10.3317 12.9951 10.3317L17.9415 4.56585C17.9707 4.53659 18 4.53659 18.0293 4.53659H19.2585C19.3171 4.53659 19.3171 4.56585 19.2878 4.59512L13.6098 11.1805C13.5805 11.2098 13.5805 11.239 13.6098 11.2683L19.8439 20.3415C19.8439 20.3415 19.8439 20.3707 19.8146 20.3707Z" fill="black"/>
<path d="M8.4 5.59024H6.43903C6.40976 5.59024 6.40976 5.61951 6.40976 5.64878L15.8342 19.3171C15.8342 19.3171 15.8342 19.3171 15.8634 19.3171H17.7951C17.8244 19.3171 17.8244 19.2878 17.8244 19.2585L8.4 5.59024Z" fill="black"/>
</svg>
