<svg width="156" height="25" viewBox="0 0 156 25" fill="none" xmlns="http://www.w3.org/2000/svg">
<path d="M12 9.024C11.4114 9.024 10.836 9.19854 10.3466 9.52555C9.85722 9.85255 9.47578 10.3173 9.25053 10.8611C9.02529 11.4049 8.96635 12.0033 9.08118 12.5806C9.19601 13.1579 9.47945 13.6881 9.89565 14.1044C10.3119 14.5206 10.8421 14.804 11.4194 14.9188C11.9967 15.0336 12.5951 14.9747 13.1389 14.7495C13.6827 14.5242 14.1474 14.1428 14.4745 13.6534C14.8015 13.164 14.976 12.5886 14.976 12C14.976 11.6092 14.899 11.2222 14.7495 10.8611C14.5999 10.5001 14.3807 10.172 14.1044 9.89565C13.828 9.6193 13.4999 9.40009 13.1389 9.25053C12.7778 9.10098 12.3908 9.024 12 9.024ZM23.916 6.084C23.9097 5.15731 23.739 4.23909 23.412 3.372C23.1711 2.73751 22.7985 2.16131 22.3186 1.68142C21.8387 1.20153 21.2625 0.828861 20.628 0.588C19.7609 0.260957 18.8427 0.0903131 17.916 0.0839999C16.368 -8.04663e-08 15.912 0 12 0C8.088 0 7.632 -8.04663e-08 6.084 0.0839999C5.15731 0.0903131 4.23909 0.260957 3.372 0.588C2.73751 0.828861 2.16131 1.20153 1.68142 1.68142C1.20153 2.16131 0.828861 2.73751 0.588 3.372C0.260957 4.23909 0.0903131 5.15731 0.0839999 6.084C-8.04663e-08 7.632 0 8.088 0 12C0 15.912 -8.04663e-08 16.368 0.0839999 17.916C0.0969167 18.846 0.267329 19.767 0.588 20.64C0.827794 21.2716 1.20015 21.8444 1.68 22.32C2.15783 22.8028 2.73527 23.1754 3.372 23.412C4.23909 23.739 5.15731 23.9097 6.084 23.916C7.632 24 8.088 24 12 24C15.912 24 16.368 24 17.916 23.916C18.8427 23.9097 19.7609 23.739 20.628 23.412C21.2647 23.1754 21.8422 22.8028 22.32 22.32C22.7998 21.8444 23.1722 21.2716 23.412 20.64C23.7387 19.7687 23.9093 18.8466 23.916 17.916C24 16.368 24 15.912 24 12C24 8.088 24 7.632 23.916 6.084ZM20.868 15.684C20.8295 16.4245 20.6714 17.1539 20.4 17.844C20.167 18.4196 19.8207 18.9425 19.3816 19.3816C18.9425 19.8207 18.4196 20.167 17.844 20.4C17.1474 20.6563 16.4139 20.7981 15.672 20.82C14.724 20.82 14.472 20.82 12 20.82C9.528 20.82 9.276 20.82 8.328 20.82C7.58608 20.7981 6.85259 20.6563 6.156 20.4C5.56092 20.1789 5.02353 19.8261 4.584 19.368C4.1492 18.9375 3.81341 18.4174 3.6 17.844C3.34267 17.1481 3.20473 16.4138 3.192 15.672C3.192 14.724 3.192 14.472 3.192 12C3.192 9.528 3.192 9.276 3.192 8.328C3.20473 7.58619 3.34267 6.85186 3.6 6.156C3.82114 5.56092 4.17393 5.02353 4.632 4.584C5.0644 4.15155 5.58392 3.81611 6.156 3.6C6.85259 3.34369 7.58608 3.20185 8.328 3.18C9.276 3.18 9.528 3.18 12 3.18C14.472 3.18 14.724 3.18 15.672 3.18C16.4139 3.20185 17.1474 3.34369 17.844 3.6C18.4391 3.82114 18.9765 4.17393 19.416 4.632C19.8508 5.0625 20.1866 5.58256 20.4 6.156C20.6563 6.85259 20.7981 7.58608 20.82 8.328C20.82 9.276 20.82 9.528 20.82 12C20.82 14.472 20.904 14.724 20.868 15.672V15.684ZM18.948 6.756C18.8051 6.36838 18.5799 6.01637 18.2877 5.72426C17.9956 5.43214 17.6436 5.20688 17.256 5.064C16.7238 4.87951 16.1632 4.79015 15.6 4.8C14.664 4.8 14.4 4.8 12 4.8C9.6 4.8 9.336 4.8 8.4 4.8C7.83392 4.80553 7.27328 4.91116 6.744 5.112C6.36232 5.24839 6.01403 5.46446 5.7223 5.74584C5.43057 6.02723 5.20207 6.36749 5.052 6.744C4.87773 7.27844 4.79259 7.83791 4.8 8.4C4.8 9.336 4.8 9.6 4.8 12C4.8 14.4 4.8 14.664 4.8 15.6C4.8119 16.1654 4.91732 16.725 5.112 17.256C5.25488 17.6436 5.48014 17.9956 5.77226 18.2877C6.06437 18.5799 6.41638 18.8051 6.804 18.948C7.316 19.1363 7.85478 19.2416 8.4 19.26C9.336 19.26 9.6 19.26 12 19.26C14.4 19.26 14.664 19.26 15.6 19.26C16.1661 19.2545 16.7267 19.1488 17.256 18.948C17.6436 18.8051 17.9956 18.5799 18.2877 18.2877C18.5799 17.9956 18.8051 17.6436 18.948 17.256C19.1488 16.7267 19.2545 16.1661 19.26 15.6C19.26 14.664 19.26 14.4 19.26 12C19.26 9.6 19.26 9.336 19.26 8.4C19.2603 7.83336 19.1545 7.27167 18.948 6.744V6.756ZM12 16.584C11.3986 16.584 10.8031 16.4653 10.2476 16.2348C9.69211 16.0043 9.18756 15.6665 8.76286 15.2407C8.33815 14.8148 8.00163 14.3094 7.77257 13.7533C7.54352 13.1972 7.42642 12.6014 7.428 12C7.428 11.0929 7.69716 10.2061 8.20138 9.45202C8.70561 8.69793 9.42225 8.1104 10.2606 7.7638C11.0989 7.4172 12.0212 7.32713 12.9107 7.50498C13.8003 7.68283 14.617 8.1206 15.2576 8.76289C15.8982 9.40517 16.3339 10.2231 16.5094 11.1131C16.6849 12.0031 16.5924 12.9251 16.2436 13.7626C15.8948 14.6 15.3054 15.315 14.55 15.8173C13.7946 16.3195 12.9071 16.5864 12 16.584ZM16.8 8.316C16.5347 8.28792 16.2892 8.16267 16.1108 7.96437C15.9324 7.76606 15.8337 7.50875 15.8337 7.242C15.8337 6.97525 15.9324 6.71794 16.1108 6.51964C16.2892 6.32134 16.5347 6.19608 16.8 6.168C17.0653 6.19608 17.3108 6.32134 17.4892 6.51964C17.6676 6.71794 17.7663 6.97525 17.7663 7.242C17.7663 7.50875 17.6676 7.76606 17.4892 7.96437C17.3108 8.16267 17.0653 8.28792 16.8 8.316Z" fill="black"/>
<path d="M63.5 0C64.7396 0 65.7995 0.440104 66.6797 1.32031C67.5599 2.20052 68 3.26042 68 4.5V19.5C68 20.7396 67.5599 21.7995 66.6797 22.6797C65.7995 23.5599 64.7396 24 63.5 24H60.5625V14.7031H63.6719L64.1406 11.0781H60.5625V8.76562C60.5625 8.18229 60.6849 7.74479 60.9297 7.45312C61.1745 7.16146 61.651 7.01562 62.3594 7.01562L64.2656 7V3.76562C63.6094 3.67188 62.6823 3.625 61.4844 3.625C60.0677 3.625 58.9349 4.04167 58.0859 4.875C57.237 5.70833 56.8125 6.88542 56.8125 8.40625V11.0781H53.6875V14.7031H56.8125V24H48.5C47.2604 24 46.2005 23.5599 45.3203 22.6797C44.4401 21.7995 44 20.7396 44 19.5V4.5C44 3.26042 44.4401 2.20052 45.3203 1.32031C46.2005 0.440104 47.2604 0 48.5 0H63.5Z" fill="black"/>
<path d="M112 5.46C111.987 4.94229 111.946 4.42561 111.88 3.912C111.79 3.46215 111.641 3.02629 111.436 2.616C111.222 2.17093 110.933 1.76523 110.584 1.416C110.231 1.07065 109.826 0.783109 109.384 0.564C108.973 0.362933 108.537 0.217648 108.088 0.132C107.579 0.0557992 107.066 0.0117121 106.552 0H93.46C92.9423 0.0134837 92.4256 0.0535363 91.912 0.12C91.4621 0.209602 91.0263 0.358924 90.616 0.564C90.1709 0.778484 89.7652 1.06653 89.416 1.416C89.0706 1.76869 88.7831 2.17367 88.564 2.616C88.3629 3.02684 88.2176 3.46269 88.132 3.912C88.0558 4.42072 88.0117 4.93374 88 5.448C88 5.676 88 6 88 6.096V17.904C88 18.036 88 18.324 88 18.54C88.0135 19.0577 88.0535 19.5744 88.12 20.088C88.2096 20.5379 88.3589 20.9737 88.564 21.384C88.7785 21.8291 89.0665 22.2348 89.416 22.584C89.7687 22.9294 90.1737 23.2169 90.616 23.436C91.0268 23.6371 91.4627 23.7824 91.912 23.868C92.4207 23.9442 92.9337 23.9883 93.448 24H106.54C107.058 23.9865 107.574 23.9465 108.088 23.88C108.538 23.7904 108.974 23.6411 109.384 23.436C109.829 23.2215 110.235 22.9335 110.584 22.584C110.929 22.2313 111.217 21.8263 111.436 21.384C111.637 20.9732 111.782 20.5373 111.868 20.088C111.944 19.5793 111.988 19.0663 112 18.552C112 18.324 112 18.036 112 17.904V6.096C112 6 112 5.676 112 5.46ZM100.276 20.4C98.8349 20.3929 97.419 20.0214 96.16 19.32L91.6 20.52L92.8 16.056C92.0261 14.7557 91.612 13.2731 91.6 11.76C91.6048 10.0595 92.1126 8.39846 93.0596 6.98605C94.0066 5.57364 95.3504 4.47304 96.9217 3.82286C98.493 3.17268 100.222 3.002 101.89 3.33233C103.558 3.66265 105.091 4.47919 106.296 5.67912C107.501 6.87905 108.324 8.40871 108.661 10.0754C108.998 11.7421 108.835 13.4714 108.191 15.0454C107.547 16.6194 106.452 17.9677 105.044 18.9205C103.635 19.8734 101.976 20.3882 100.276 20.4ZM100.276 4.644C99.0038 4.65856 97.7581 5.00998 96.6659 5.66249C95.5736 6.31499 94.6738 7.24528 94.058 8.35862C93.4421 9.47197 93.1323 10.7286 93.1601 12.0006C93.1879 13.2726 93.5522 14.5146 94.216 15.6L94.384 15.876L93.664 18.504L96.4 17.76L96.664 17.916C97.7555 18.5589 98.9973 18.9025 100.264 18.912C102.174 18.912 104.005 18.1534 105.355 16.8032C106.705 15.4529 107.464 13.6216 107.464 11.712C107.464 9.80244 106.705 7.97109 105.355 6.62083C104.005 5.27057 102.174 4.512 100.264 4.512L100.276 4.644ZM104.476 14.868C104.319 15.1302 104.108 15.3564 103.858 15.5321C103.608 15.7078 103.324 15.8291 103.024 15.888C102.576 15.9699 102.114 15.9411 101.68 15.804C101.271 15.6762 100.87 15.5239 100.48 15.348C98.9965 14.6036 97.7313 13.4873 96.808 12.108C96.3063 11.469 96.0018 10.6975 95.932 9.888C95.9249 9.55175 95.9885 9.21774 96.1187 8.90765C96.2489 8.59756 96.4429 8.31831 96.688 8.088C96.7602 8.00615 96.8488 7.94035 96.948 7.89488C97.0472 7.8494 97.1549 7.82526 97.264 7.824H97.6C97.732 7.824 97.912 7.824 98.08 8.196C98.248 8.568 98.692 9.684 98.752 9.792C98.7815 9.84957 98.7969 9.91332 98.7969 9.978C98.7969 10.0427 98.7815 10.1064 98.752 10.164C98.699 10.2944 98.6261 10.4158 98.536 10.524C98.428 10.656 98.308 10.812 98.212 10.908C98.116 11.004 97.996 11.124 98.116 11.34C98.4425 11.891 98.8467 12.3922 99.316 12.828C99.8271 13.2796 100.411 13.6408 101.044 13.896C101.26 14.004 101.392 13.992 101.512 13.896C101.632 13.8 102.052 13.272 102.196 13.056C102.34 12.84 102.484 12.876 102.676 12.948C102.868 13.02 103.936 13.536 104.152 13.644C104.368 13.752 104.5 13.8 104.56 13.896C104.612 14.2101 104.583 14.5322 104.476 14.832V14.868Z" fill="#2DC83F"/>
<path d="M149.737 0H138.234C134.81 0 132 2.78049 132 6.23415V18.2927C132 21.7171 134.78 24.5268 138.234 24.5268H149.766C153.19 24.5268 156 21.7463 156 18.2927V6.20488C155.971 2.78049 153.19 0 149.737 0ZM151.815 20.3707H147.307C147.278 20.3707 147.249 20.3707 147.249 20.3415L143.034 14.2244H143.005C141.307 16.1854 139.639 18.1171 138 20.0195C137.912 20.1366 137.795 20.2244 137.707 20.3122C137.678 20.3415 137.649 20.3415 137.62 20.3415H136.39C136.361 20.3415 136.332 20.3415 136.361 20.3122L142.361 13.3463C142.39 13.3171 142.39 13.2878 142.361 13.2585L136.39 4.56585V4.53659H140.927C140.956 4.53659 140.956 4.53658 140.985 4.56585L144.966 10.3317C144.966 10.3317 144.966 10.3317 144.995 10.3317L149.941 4.56585C149.971 4.53658 150 4.53659 150.029 4.53659H151.259C151.317 4.53659 151.317 4.56585 151.288 4.59512L145.61 11.1805C145.58 11.2098 145.58 11.239 145.61 11.2683L151.844 20.3415C151.844 20.3415 151.844 20.3707 151.815 20.3707Z" fill="black"/>
<path d="M140.4 5.59024H138.439C138.41 5.59024 138.41 5.61951 138.41 5.64878L147.834 19.3171C147.834 19.3171 147.834 19.3171 147.863 19.3171H149.795C149.824 19.3171 149.824 19.2878 149.824 19.2585L140.4 5.59024Z" fill="black"/>
</svg>
